# xmcd
#
# Track frame offsets:
#	150
#	17250
#	28910
#	47110
#	54808
#	65390
#	80143
#	95762
#	108836
#	121892
#	136079
#	150774
#	167338
#	181605
#	199013
#	213024
#	229636
#	243668
#	255551
#	267124
#
# Disc length: 3774 seconds
#
# Revision: 1
# Processed by: cddbd v1.5.2PL0 Copyright (c) Steve Scherf et al.
# Submitted via: audiograbber 1.83.01
#
DISCID=f10ebc14
DTITLE=Western Heart - Western Heart 004
DYEAR=2000
DGENRE=Country
TTITLE0=There Goes My Everything - Erin Hay
TTITLE1=Countrifeid - Dick Damron
TTITLE2=Candel In The Window - Sylvia Winters
TTITLE3=Red Haried Boy - Lonnie Joe Howell
TTITLE4=Sad And Broken Heart Blues - Woody Wills
TTITLE5=What Do You Think Is Fair - Sylvia Winter and Antonio Rosales
TTITLE6=I Realy Haven´t Gotten Over You - Jim Marshall
TTITLE7=You Cared Enough To Lie - Pinto Bennett
TTITLE8=Irene - Ernie Ashworth
TTITLE9=Half Of This And Half Of That - Perley Curtis
TTITLE10=Two Will Be One - Woody Wills and Sylvia Winters
TTITLE11=It´s Your Love - Jamie Harper and Joe Funk
TTITLE12=Everyday Miracle - Christi Owens
TTITLE13=One Life - Arnie Benoni
TTITLE14=Capter Two - George Webb
TTITLE15=Fantasies Of You - Doc Randal
TTITLE16=It´s My Guess - Antonio Rossales
TTITLE17=It Hadf To Be Jesus - Charlie Luvin
TTITLE18=Stop Looking At Me - Jamie Cutler Harper
TTITLE19=Achy Breaky/ Hoky Poky/ Scoopy Scoopy Doo - Tom Cunningham
EXTD=
EXTT0=
EXTT1=
EXTT2=
EXTT3=
EXTT4=
EXTT5=
EXTT6=
EXTT7=
EXTT8=
EXTT9=
EXTT10=
EXTT11=
EXTT12=
EXTT13=
EXTT14=
EXTT15=
EXTT16=
EXTT17=
EXTT18=
EXTT19=
PLAYORDER=
